<svg width="24" height="24" viewBox="0 0 24 24" fill="none" xmlns="http://www.w3.org/2000/svg">
<path d="M10.9865 7.34039C10.4947 7.34039 10.0471 7.14192 9.78915 6.80952C9.76209 6.77466 9.74216 6.73481 9.7305 6.69225C9.71884 6.64969 9.71568 6.60525 9.7212 6.56147C9.72671 6.51769 9.7408 6.47543 9.76265 6.43709C9.7845 6.39875 9.81369 6.36509 9.84855 6.33803C9.8834 6.31098 9.92325 6.29105 9.96581 6.27939C10.0084 6.26773 10.0528 6.26457 10.0966 6.27009C10.185 6.28123 10.2654 6.32704 10.32 6.39743C10.4477 6.56207 10.7093 6.6684 10.9865 6.6684C11.4226 6.6684 11.7264 6.42287 11.7264 6.20231C11.7264 5.98175 11.4226 5.73599 10.9865 5.73599C10.6265 5.73599 10.2857 5.62895 10.0248 5.43431C9.73875 5.22095 9.57458 4.91616 9.57458 4.59768C9.57458 4.2792 9.73875 3.97368 10.0248 3.76104C10.2857 3.56664 10.6272 3.45959 10.9865 3.45959C11.4783 3.45959 11.9261 3.65807 12.1839 3.99047C12.2118 4.02525 12.2326 4.06524 12.2449 4.10812C12.2573 4.15099 12.2609 4.1959 12.2557 4.24022C12.2505 4.28453 12.2366 4.32736 12.2146 4.36622C12.1927 4.40507 12.1632 4.43917 12.128 4.46652C12.0927 4.49387 12.0524 4.51392 12.0093 4.52551C11.9662 4.5371 11.9212 4.53999 11.877 4.53401C11.8328 4.52804 11.7902 4.51331 11.7518 4.4907C11.7133 4.46809 11.6797 4.43804 11.653 4.40231C11.5253 4.23791 11.2637 4.13159 10.9865 4.13159C10.5504 4.13159 10.2466 4.37712 10.2466 4.59768C10.2466 4.81824 10.5504 5.06399 10.9865 5.06399C11.3465 5.06399 11.6873 5.17104 11.9482 5.36568C12.2343 5.57904 12.3984 5.88383 12.3984 6.20231C12.3984 6.52079 12.2343 6.82632 11.9482 7.03896C11.688 7.23336 11.3458 7.34039 10.9865 7.34039Z" fill="#181818"/>
<path d="M10.9865 4.13164C10.8973 4.13164 10.8119 4.09624 10.7489 4.03323C10.6859 3.97022 10.6505 3.88476 10.6505 3.79564V3.26068C10.6505 3.17157 10.6859 3.08611 10.7489 3.02309C10.8119 2.96008 10.8973 2.92468 10.9865 2.92468C11.0756 2.92468 11.161 2.96008 11.224 3.02309C11.2871 3.08611 11.3225 3.17157 11.3225 3.26068V3.79564C11.3225 3.88476 11.2871 3.97022 11.224 4.03323C11.161 4.09624 11.0756 4.13164 10.9865 4.13164ZM10.9865 7.8754C10.8973 7.8754 10.8119 7.84 10.7489 7.77699C10.6859 7.71398 10.6505 7.62852 10.6505 7.5394V7.00444C10.6505 6.91533 10.6859 6.82987 10.7489 6.76685C10.8119 6.70384 10.8973 6.66844 10.9865 6.66844C11.0756 6.66844 11.161 6.70384 11.224 6.76685C11.2871 6.82987 11.3225 6.91533 11.3225 7.00444V7.5394C11.3225 7.62852 11.2871 7.71398 11.224 7.77699C11.161 7.84 11.0756 7.8754 10.9865 7.8754Z" fill="#181818"/>
<path d="M10.9865 9.33599C8.81615 9.33599 7.05047 7.57031 7.05047 5.39999C7.05047 3.22967 8.81615 1.46399 10.9865 1.46399C13.1568 1.46399 14.9225 3.22967 14.9225 5.39999C14.9225 7.57031 13.1568 9.33599 10.9865 9.33599ZM10.9865 2.13599C9.18647 2.13599 7.72247 3.59999 7.72247 5.39999C7.72247 7.19999 9.18647 8.66399 10.9865 8.66399C12.7865 8.66399 14.2505 7.19999 14.2505 5.39999C14.2505 3.59999 12.7862 2.13599 10.9865 2.13599ZM22.2 22.536H1.79999C1.71088 22.536 1.62541 22.5006 1.5624 22.4376C1.49939 22.3746 1.46399 22.2891 1.46399 22.2V20.28C1.46399 20.1909 1.49939 20.1054 1.5624 20.0424C1.62541 19.9794 1.71088 19.944 1.79999 19.944H22.2C22.2891 19.944 22.3746 19.9794 22.4376 20.0424C22.5006 20.1054 22.536 20.1909 22.536 20.28V22.2C22.536 22.2891 22.5006 22.3746 22.4376 22.4376C22.3746 22.5006 22.2891 22.536 22.2 22.536ZM2.13599 21.864H21.864V20.616H2.13599V21.864Z" fill="#181818"/>
<path d="M6.264 20.616H4.344C4.25488 20.616 4.16942 20.5806 4.10641 20.5176C4.0434 20.4545 4.008 20.3691 4.008 20.28V16.3092C4.008 16.2201 4.0434 16.1346 4.10641 16.0716C4.16942 16.0086 4.25488 15.9732 4.344 15.9732C4.43311 15.9732 4.51857 16.0086 4.58158 16.0716C4.6446 16.1346 4.68 16.2201 4.68 16.3092V19.944H5.928V16.0668C5.928 15.9777 5.9634 15.8922 6.02641 15.8292C6.08942 15.7662 6.17488 15.7308 6.264 15.7308C6.35311 15.7308 6.43857 15.7662 6.50158 15.8292C6.5646 15.8922 6.6 15.9777 6.6 16.0668V20.28C6.6 20.3691 6.5646 20.4545 6.50158 20.5176C6.43857 20.5806 6.35311 20.616 6.264 20.616ZM10.728 20.616H8.808C8.71888 20.616 8.63342 20.5806 8.57041 20.5176C8.5074 20.4545 8.472 20.3691 8.472 20.28V15.5877C8.472 15.4986 8.5074 15.4131 8.57041 15.3501C8.63342 15.2871 8.71888 15.2517 8.808 15.2517C8.89711 15.2517 8.98257 15.2871 9.04558 15.3501C9.1086 15.4131 9.144 15.4986 9.144 15.5877V19.944H10.392V15.0895C10.392 15.0004 10.4274 14.9149 10.4904 14.8519C10.5534 14.7889 10.6389 14.7535 10.728 14.7535C10.8171 14.7535 10.9026 14.7889 10.9656 14.8519C11.0286 14.9149 11.064 15.0004 11.064 15.0895V20.28C11.064 20.3691 11.0286 20.4545 10.9656 20.5176C10.9026 20.5806 10.8171 20.616 10.728 20.616ZM15.192 20.616H13.272C13.1829 20.616 13.0974 20.5806 13.0344 20.5176C12.9714 20.4545 12.936 20.3691 12.936 20.28V14.1914C12.936 14.1023 12.9714 14.0168 13.0344 13.9538C13.0974 13.8908 13.1829 13.8554 13.272 13.8554C13.3611 13.8554 13.4466 13.8908 13.5096 13.9538C13.5726 14.0168 13.608 14.1023 13.608 14.1914V19.944H14.856V13.2585C14.856 13.1694 14.8914 13.084 14.9544 13.0209C15.0174 12.9579 15.1029 12.9225 15.192 12.9225C15.2811 12.9225 15.3666 12.9579 15.4296 13.0209C15.4926 13.084 15.528 13.1694 15.528 13.2585V20.28C15.528 20.3691 15.4926 20.4545 15.4296 20.5176C15.3666 20.5806 15.2811 20.616 15.192 20.616ZM19.656 20.616H17.736C17.6469 20.616 17.5614 20.5806 17.4984 20.5176C17.4354 20.4545 17.4 20.3691 17.4 20.28V11.4168C17.4 11.3277 17.4354 11.2422 17.4984 11.1792C17.5614 11.1162 17.6469 11.0808 17.736 11.0808C17.8251 11.0808 17.9106 11.1162 17.9736 11.1792C18.0366 11.2422 18.072 11.3277 18.072 11.4168V19.944H19.32V10.1335C19.32 10.0444 19.3554 9.95891 19.4184 9.8959C19.4814 9.83288 19.5669 9.79749 19.656 9.79749C19.7451 9.79749 19.8306 9.83288 19.8936 9.8959C19.9566 9.95891 19.992 10.0444 19.992 10.1335V20.28C19.992 20.3691 19.9566 20.4545 19.8936 20.5176C19.8306 20.5806 19.7451 20.616 19.656 20.616Z" fill="#181818"/>
<path d="M2.74632 16.7635C2.66414 16.7633 2.58488 16.733 2.52352 16.6783C2.46217 16.6236 2.42298 16.5484 2.41338 16.4668C2.40377 16.3851 2.42441 16.3028 2.47139 16.2354C2.51837 16.168 2.58843 16.1201 2.66832 16.1008C8.95848 14.5996 12.4754 12.3103 14.3179 10.654C16.2821 8.88883 16.7839 7.48747 16.7899 7.47355C16.8086 7.4198 16.8406 7.37167 16.883 7.33367C16.9253 7.29568 16.9766 7.26907 17.0321 7.25633C17.0876 7.24359 17.1454 7.24515 17.2 7.26085C17.2547 7.27656 17.3045 7.30589 17.3448 7.34611L19.429 9.43195C19.483 9.48596 19.5169 9.55675 19.5253 9.63266C19.5337 9.70857 19.516 9.78507 19.475 9.84955C18.522 11.3498 17.0419 12.648 15.0763 13.7059C13.5199 14.544 11.6554 15.2352 9.53424 15.761C5.93424 16.6536 2.78856 16.7623 2.75712 16.7635H2.74632ZM17.2102 8.16259C16.8982 8.76259 16.1916 9.87331 14.7672 11.1537C13.554 12.2443 12.0624 13.2376 10.3342 14.1057C9.1788 14.688 7.91472 15.2133 6.552 15.6806C7.42104 15.5407 8.38488 15.354 9.384 15.1046C12.5338 14.3224 16.68 12.7548 18.7594 9.71131L17.2102 8.16259Z" fill="#181818"/>
<path d="M20.472 11.2853C20.4279 11.2853 20.3842 11.2766 20.3434 11.2598C20.3026 11.2429 20.2656 11.2181 20.2344 11.1869L15.5882 6.54101C15.5441 6.49692 15.5131 6.44142 15.4988 6.38072C15.4844 6.32002 15.4872 6.25652 15.5069 6.19733C15.5266 6.13814 15.5624 6.08559 15.6102 6.04558C15.6581 6.00557 15.7161 5.97966 15.7778 5.97077L21.2057 5.18885C21.2574 5.18141 21.3101 5.18613 21.3597 5.20263C21.4092 5.21913 21.4543 5.24696 21.4912 5.28391C21.5281 5.32086 21.5559 5.36591 21.5724 5.41549C21.5889 5.46506 21.5936 5.51779 21.5861 5.56949L20.8044 10.9971C20.7929 11.0771 20.7529 11.1502 20.6918 11.2031C20.6307 11.256 20.5526 11.2851 20.4718 11.2851L20.472 11.2853ZM16.5379 6.54029L20.2339 10.2363L20.856 5.91629L16.5379 6.54029Z" fill="#181818"/>
</svg>
